<?xml version="1.0" encoding="utf-8"?>
<!-- Generator: Adobe Illustrator 23.0.2, SVG Export Plug-In . SVG Version: 6.00 Build 0)  -->
<svg version="1.1" id="Layer_1" xmlns="http://www.w3.org/2000/svg" xmlns:xlink="http://www.w3.org/1999/xlink" x="0px" y="0px"
	 viewBox="0 0 100 100" style="enable-background:new 0 0 100 100;" xml:space="preserve">
<path d="M26.53,13.39c-5.86,0-11.24,0-16.77,0c0,1.42,0,2.78,0,4.25c0.43,0.43,0.98,0.98,1.53,1.53c-0.12,3.06-0.12,3.06-3.14,3.38
	c-0.44-0.44-0.88-0.88-1.33-1.33c0-0.61,0-1.23,0-1.9c0.53-0.5,1.09-1.03,2.01-1.89c-0.27-1.75-0.58-3.73-0.9-5.84
	c5.97,0,11.97,0,18.21,0c0-1.92,0-3.69,0-5.47c-0.8,0.19-1.62,0.4-3.3,0.8c1.08-1.59,1.65-2.42,2.3-3.38
	c-0.5-0.82-1.1-1.82-1.87-3.1c2.11,0.31,2.11,0.31,3.41,1.54C27.6,1.35,28.51,0.7,29.49,0c1.51,2.09-0.83,2.38-1.06,3.64
	c0.52,0.59,1.2,1.35,2.2,2.49c-1,0.41-1.59,0.66-2.3,0.95c0,1.3,0,2.65,0,4.19c15.3,0,30.61,0,46.26,0c0.06-1.25,0.14-2.7,0.21-4.09
	c-0.72-0.28-1.25-0.49-2.16-0.85c0.71-1.03,1.34-1.96,1.92-2.81C74,2.7,73.36,1.77,72.65,0.75c2.13-1.18,2.49,0.93,3.36,1.22
	c1.07-0.68,2-1.28,2.97-1.9c1.08,2.03-0.68,2.38-1.27,3.34C78.35,4.29,79,5.19,80.17,6.8c-1.63-0.3-2.46-0.46-3.39-0.63
	c0,1.54,0,3.2,0,5.2c5.1,0,10.3,0,15.4,0c0.34,3.43,0.64,6.53,1,10.22c-0.7,0.32-1.82,0.84-2.89,1.33c-0.6-1.16-1-1.92-1.42-2.73
	c1.75-1.78,2.04-4.07,1.6-6.71c-4.42,0-8.87,0-13.51,0c0.08-0.07-0.05,0.02-0.14,0.14c-0.08,0.11-0.16,0.26-0.16,0.4
	c-0.01,28.52-0.01,57.04-0.01,85.67c-0.55,0.1-0.97,0.18-1.73,0.32c0-28.89,0-57.65,0-86.56c-7.25,0-14.19,0-21.34,0
	c0,1.24,0,2.58,0,4.16c0.47,0.54,1.14,1.32,1.64,1.89c0.11,2.6-1.11,3.33-2.89,3.12c-0.76-0.55-1.37-0.98-1.66-1.19
	c0.39-2.91,0.73-5.37,1.08-8.01c-8.04,0-15.59,0-23.47,0c0,28.75,0,57.52,0,86.37c-0.74,0-1.16,0-1.74,0
	C26.53,71.1,26.53,42.45,26.53,13.39z"/>
</svg>
