<?xml version="1.0" encoding="utf-8"?>
<!-- Generator: Adobe Illustrator 23.0.2, SVG Export Plug-In . SVG Version: 6.00 Build 0)  -->
<svg version="1.1" id="Layer_1" xmlns="http://www.w3.org/2000/svg" xmlns:xlink="http://www.w3.org/1999/xlink" x="0px" y="0px"
	 viewBox="0 0 100 100" style="enable-background:new 0 0 100 100;" xml:space="preserve">
<style type="text/css">
	.st0{fill:#FFFFFF;}
</style>
<path d="M70.03,100c-0.53-0.52-1.39-0.96-1.54-1.58c-0.67-2.73-1.18-5.51-1.67-8.28c-0.34-1.91-0.01-4.19-0.97-5.68
	c-1.17-1.82-0.29-3.77-1.33-5.62c-1.01-1.78-0.63-4.32-0.99-6.5c-0.54-3.29-0.81-6.71-1.95-9.79c-0.64-1.73,0.39-3.8-1.3-5.16
	c-0.24-4.65-1.69-9.07-2.61-13.74c-4.96,0-9.95,0-15.23,0c0.18,2.74-0.92,5.42-1.09,8.33c-0.11,2.02-0.15,4.28-0.8,6.14
	c-0.74,2.14-0.12,4.29-0.77,6.2c-0.67,1.96-0.24,3.99-0.82,5.77c-0.65,1.96-0.24,3.99-0.81,5.78c-0.63,1.96-0.23,4-0.82,5.77
	c-0.66,1.97-0.18,4.03-0.82,5.77c-0.78,2.11,0.03,4.46-0.85,6.15c-1.07,2.05-0.2,3.95-0.83,6.13c-0.57,0.03-1.31,0.08-2.15,0.13
	c2.66-19.04,5.29-37.86,7.93-56.76c-4.9-4.88-9.9-9.87-15.02-14.97c-2.1,0-4.37,0-6.77,0c0,1.79,0,3.52,0,5.36
	c0.38,0.38,0.86,0.86,1.34,1.34c0.58,1.37-0.08,2.27-1.1,2.99c-0.57,0-1.11,0-1.62,0c-0.41-0.41-0.79-0.79-1.31-1.31
	c1.4-3.06,0.8-6.41,0.96-9.89c2.51,0,5.04,0,7.25,0c5.33-5.33,10.41-10.41,15.73-15.73c-0.61-1.4-1.3-3.01-2-4.63
	c-0.47-0.17-0.94-0.34-1.73-0.62c0.67-0.94,1.24-1.74,1.73-2.42C37.53,2.37,37,1.55,36.43,0.69c1.75-0.97,2.08,0.54,2.96,1.11
	c0.74-0.56,1.51-1.13,2.37-1.78c1.4,1.82-0.69,2.09-0.84,3.2c0.45,0.62,1.03,1.42,1.68,2.31c-1.88,1.17-2.19-0.7-3.39-1.26
	c0,0.57-0.17,1.12,0.03,1.45c0.86,1.41,1.83,2.75,2.88,4.3c5.1,0,10.52,0,16.06,0c1.1-1.2,2.28-2.5,3.49-3.83
	c-0.11-0.15-0.4-0.55-1.03-1.4c0.79-0.37,1.54-0.72,2.17-1.02c-0.79-1.34-1.32-2.22-1.84-3.1c0.17-0.17,0.34-0.35,0.52-0.52
	c0.81,0.5,1.63,0.99,2.51,1.53c0.63-0.46,1.43-1.03,2.33-1.68c1.16,1.85-0.68,2.19-1.08,3.03c0.59,0.83,1.16,1.64,2.33,3.28
	c-1.6-0.52-2.23-0.73-2.93-0.96c-1.35,1.68-2.82,3.51-4.47,5.56c1.74,2.09,3.47,4.4,5.43,6.48c2.88,3.07,5.93,5.98,9.05,9.1
	c2.4,0,4.95,0,7.56,0c0,2.29,0,4.45,0,6.87c0.55,0.38,1.22,0.83,1.67,1.13c-0.16,2.9-0.17,2.89-2.76,3.33
	c-0.32-0.61-0.66-1.25-1.02-1.96c1.26-2.39,0.15-5.03,0.7-7.72c-2.26,0-4.26,0-6.4,0c-4.87,4.87-9.86,9.86-14.82,14.82
	c3.78,18.9,7.56,37.77,11.33,56.63C70.62,99.74,70.33,99.87,70.03,100z M27.73,26.71c5.14,5.16,10.11,10.16,15.08,15.15
	c4.89,0,9.78,0,14.64,0c2.43-2.43,4.84-4.81,7.22-7.23c2.44-2.47,5-4.83,7.54-7.71c-4.78-4.98-9.32-9.72-13.68-14.26
	c-2.82,0-5.36,0-7.97,0c0,1.86,0,3.59,0,5.01c0.7,0.95,1.23,1.67,1.75,2.38c-2.42,2-2.5,1.99-4.39-0.49
	c1.18-2.19,1.15-4.6,0.75-7.03c-2.43,0-4.6,0-6.76,0C37.19,17.25,32.48,21.95,27.73,26.71z"/>
<path class="st0" d="M27.76,26.71c4.75-4.75,9.46-9.46,14.18-14.18c2.16,0,4.33,0,6.76,0c0.4,2.43,0.43,4.84-0.75,7.03
	c1.89,2.47,1.96,2.48,4.39,0.49c-0.52-0.71-1.05-1.43-1.75-2.38c0-1.43,0-3.15,0-5.01c2.61,0,5.15,0,7.97,0
	c4.36,4.54,8.9,9.28,13.68,14.26c-2.54,2.88-5.1,5.24-7.54,7.71c-2.38,2.42-4.8,4.81-7.22,7.23c-4.86,0-9.74,0-14.64,0
	C37.88,36.87,32.9,31.87,27.76,26.71z"/>
</svg>
