<?xml version="1.0" encoding="utf-8"?>
<!-- Generator: Adobe Illustrator 23.0.2, SVG Export Plug-In . SVG Version: 6.00 Build 0)  -->
<svg version="1.1" id="Layer_1" xmlns="http://www.w3.org/2000/svg" xmlns:xlink="http://www.w3.org/1999/xlink" x="0px" y="0px"
	 viewBox="0 0 100 100" style="enable-background:new 0 0 100 100;" xml:space="preserve">
<path d="M70,100c-0.5-0.5-1.4-1-1.5-1.6c-0.7-2.7-1.2-5.5-1.7-8.3c-0.3-1.9,0-4.2-1-5.7c-1.2-1.8-0.3-3.8-1.3-5.6
	c-1-1.8-0.6-4.3-1-6.5c-0.5-3.3-0.8-6.7-2-9.8c-0.6-1.7,0.4-3.8-1.3-5.2c-0.2-4.7-1.7-9.1-2.6-13.7c-5,0-10,0-15.2,0
	c0.2,2.7-0.9,5.4-1.1,8.3c-0.1,2-0.2,4.3-0.8,6.1c-0.7,2.1-0.1,4.3-0.8,6.2c-0.7,2-0.2,4-0.8,5.8c-0.7,2-0.2,4-0.8,5.8
	c-0.6,2-0.2,4-0.8,5.8c-0.7,2-0.2,4-0.8,5.8c-0.8,2.1,0,4.5-0.8,6.2c-1.1,2.1-0.2,3.9-0.8,6.1c-0.6,0-1.3,0.1-2.2,0.1
	c2.7-19,5.3-37.9,7.9-56.8c-4.9-4.9-9.9-9.9-15-15c-2.1,0-4.4,0-6.8,0c0,1.8,0,3.5,0,5.4c0.4,0.4,0.9,0.9,1.3,1.3
	c0.6,1.4-0.1,2.3-1.1,3c-0.6,0-1.1,0-1.6,0c-0.4-0.4-0.8-0.8-1.3-1.3c1.4-3.1,0.8-6.4,1-9.9c2.5,0,5,0,7.3,0
	c5.3-5.3,10.4-10.4,15.7-15.7c-0.6-1.4-1.3-3-2-4.6c-0.5-0.2-0.9-0.3-1.7-0.6c0.7-0.9,1.2-1.7,1.7-2.4c-0.5-0.8-1.1-1.6-1.6-2.5
	c1.8-1,2.1,0.5,3,1.1c0.7-0.6,1.5-1.1,2.4-1.8c1.4,1.8-0.7,2.1-0.8,3.2c0.5,0.6,1,1.4,1.7,2.3c-1.9,1.2-2.2-0.7-3.4-1.3
	c0,0.6-0.2,1.1,0,1.4c0.9,1.4,1.8,2.8,2.9,4.3c5.1,0,10.5,0,16.1,0c1.1-1.2,2.3-2.5,3.5-3.8c-0.1-0.2-0.4-0.6-1-1.4
	c0.8-0.4,1.5-0.7,2.2-1C62,2.4,61.5,1.5,61,0.7c0.2-0.2,0.3-0.3,0.5-0.5c0.8,0.5,1.6,1,2.5,1.5c0.6-0.5,1.4-1,2.3-1.7
	c1.2,1.9-0.7,2.2-1.1,3c0.6,0.8,1.2,1.6,2.3,3.3c-1.6-0.5-2.2-0.7-2.9-1c-1.3,1.7-2.8,3.5-4.5,5.6c1.7,2.1,3.5,4.4,5.4,6.5
	c2.9,3.1,5.9,6,9.1,9.1c2.4,0,4.9,0,7.6,0c0,2.3,0,4.4,0,6.9c0.6,0.4,1.2,0.8,1.7,1.1c-0.2,2.9-0.2,2.9-2.8,3.3
	c-0.3-0.6-0.7-1.3-1-2c1.3-2.4,0.2-5,0.7-7.7c-2.3,0-4.3,0-6.4,0C69.5,33,64.6,38,59.6,43c3.8,18.9,7.6,37.8,11.3,56.6
	C70.6,99.7,70.3,99.9,70,100z M27.7,26.7c5.1,5.2,10.1,10.2,15.1,15.2c4.9,0,9.8,0,14.6,0c2.4-2.4,4.8-4.8,7.2-7.2
	c2.4-2.5,5-4.8,7.5-7.7c-4.8-5-9.3-9.7-13.7-14.3c-2.8,0-5.4,0-8,0c0,1.9,0,3.6,0,5c0.7,1,1.2,1.7,1.8,2.4c-2.4,2-2.5,2-4.4-0.5
	c1.2-2.2,1.2-4.6,0.8-7c-2.4,0-4.6,0-6.8,0C37.2,17.3,32.5,22,27.7,26.7z"/>
</svg>
