<?xml version="1.0" encoding="utf-8"?>
<!-- Generator: Adobe Illustrator 23.0.2, SVG Export Plug-In . SVG Version: 6.00 Build 0)  -->
<svg version="1.1" id="Layer_1" xmlns="http://www.w3.org/2000/svg" xmlns:xlink="http://www.w3.org/1999/xlink" x="0px" y="0px"
	 viewBox="0 0 100 100" style="enable-background:new 0 0 100 100;" xml:space="preserve">
<style type="text/css">
	.st0{fill:#FFFFFF;}
</style>
<path d="M72.77,17.11c0,5.44,0,10.72,0,16.13c-4.95,4.95-9.96,9.91-14.9,14.93c-2.52,2.56-4.93,5.24-7.34,7.82
	c0,14.76,0,29.3,0,43.91c-0.54,0.04-0.94,0.07-1.51,0.11c0-14.9,0-29.72,0-44.3c-8.45-7.61-16.68-15.02-24.93-22.44
	c0-5.3,0-10.59,0-16.1c-4.34,0-8.67,0-13.42,0c0.27,2.67,0.53,5.31,0.85,8.42c-0.18,0.1-0.82,0.45-1.94,1.07c0.18,0-0.4,0-0.96,0
	c-0.44-0.44-0.85-0.85-1.08-1.08c0.31-3.43,0.6-6.69,0.92-10.21c0.17-0.17,0.59-0.59,1.16-1.16c4.37,0,8.89,0,13.97,0
	c-1.44-2.85-2.7-5.37-4.04-8.01C19,6.65,18.7,6.9,18.36,7.19c-0.38-0.37-0.79-0.75-1.44-1.37c0.72-0.46,1.43-0.92,2.33-1.5
	c-0.86-1.19-1.48-2.06-2.11-2.93c0.39-0.39,0.8-0.8,1.38-1.38c0.54,0.69,1.08,1.37,1.65,2.1c0.52-0.24,0.9-0.39,1.25-0.59
	c0.78-0.47,1.1-1.9,2.48-1.13c0.9,1.74-1.43,1.9-1.57,3.4c0.58,0.83,1.28,1.83,2.1,3c-0.79,0.27-1.3,0.44-2.03,0.68
	c1.18,2.27,2.34,4.51,3.5,6.74c15.34,0,30.46,0,45.56,0c1.25-2.53,2.5-5.05,3.75-7.58c-0.54-0.2-1.05-0.38-1.91-0.7
	c0.71-1.01,1.32-1.88,1.86-2.65C74.6,2.44,74,1.56,73.37,0.62c1.87-1.07,2.25,0.54,3.14,1.12c0.94-0.56,1.9-1.13,2.85-1.7
	c0.19,0.18,0.37,0.37,0.56,0.55c-0.53,0.88-1.07,1.76-1.77,2.92c0.46,0.31,1.16,0.77,1.48,0.98c0,1.2,0,1.9,0,2.59
	c-0.14,0.09-0.28,0.18-0.42,0.28c-0.35-0.8-0.69-1.6-1.14-2.63c-1.66,3.63-2.95,6.45-4.33,9.47c5.97,0,12.08,0,18.54,0
	c-0.77,3.72-2.04,7.16,0.18,10.6c-0.63,0.73-1.16,1.34-1.64,1.89c-2.84-0.44-2.85-0.44-3.07-3.15c0.52-0.52,1.04-1.04,1.65-1.65
	c0-1.49,0-3.06,0-4.79C83.96,17.11,78.56,17.11,72.77,17.11z M70.78,32.22c0-4.92,0-10.03,0-15.27c-6.9,0-13.65,0-20.4,0.01
	c-0.12,0-0.26,0.08-0.37,0.16c-0.11,0.08-0.19,0.21-0.5,0.57c0.29,2.3,0.6,4.83,0.95,7.69c-0.42,1.06-1.48,1.55-2.96,1.28
	c-0.37-0.72-0.74-1.45-1.15-2.24c1.82-2.11,1.8-4.69,1.48-7.38c-7.09,0-13.96,0-20.96,0c0,5.2,0,10.31,0,15.52
	c2.68,2.43,5.24,5.14,8.22,7.48c4.43,3.49,8.36,7.61,12.51,11.45c0.71,0.66,1.46,1.28,2.08,1.81
	C56.85,46.14,63.81,39.18,70.78,32.22z"/>
<path class="st0" d="M71.95,32.22c-6.97,6.97-13.93,13.92-21.1,21.09c-0.62-0.54-1.37-1.15-2.08-1.81
	c-4.15-3.84-8.08-7.96-12.51-11.45c-2.98-2.35-5.54-5.05-8.22-7.48c0-5.21,0-10.32,0-15.52c7,0,13.87,0,20.96,0
	c0.33,2.69,0.35,5.27-1.48,7.38c0.4,0.79,0.78,1.52,1.15,2.24c1.47,0.27,2.54-0.22,2.96-1.28c-0.36-2.87-0.67-5.39-0.95-7.69
	c0.31-0.36,0.39-0.49,0.5-0.57c0.11-0.08,0.25-0.16,0.37-0.16c6.75-0.01,13.5-0.01,20.4-0.01C71.95,22.18,71.95,27.29,71.95,32.22z"
	/>
</svg>
