<?xml version="1.0" encoding="utf-8"?>
<!-- Generator: Adobe Illustrator 23.0.2, SVG Export Plug-In . SVG Version: 6.00 Build 0)  -->
<svg version="1.1" id="Layer_1" xmlns="http://www.w3.org/2000/svg" xmlns:xlink="http://www.w3.org/1999/xlink" x="0px" y="0px"
	 viewBox="0 0 100 100" style="enable-background:new 0 0 100 100;" xml:space="preserve">
<style type="text/css">
	.st0{fill:#FFFFFF;}
</style>
<path d="M62.77,10.92c4.6,4.6,9.16,9.16,13.86,13.86c5.84,0,11.82,0,17.97,0c0,3.04,0,5.94,0,8.66c0.8,0.86,1.43,1.54,2.05,2.21
	c-2.26,2.4-2.34,2.4-4.54,0.08c1.46-2.73,0.86-5.78,1-9.09c-1.48-0.04-2.96-0.1-4.44-0.12c-1.52-0.02-3.05,0-4.75,0
	c-0.28,3.66-0.14,7.14,1,10.55c-2.22,0.22-2.22,0.22-3.74-1.26c1.46-2.87,0.84-6,1-9.19c-1.75,0-3.25,0-4.83,0
	c-4.85,7.76-9.72,15.55-14.58,23.31c1.62,7.1,3.56,14.05,5.18,21.08c0.7,3.03,1.52,6.07,2.38,9.08c0.86,3.01,1.66,6.05,2.42,9.08
	c0.6,2.41,1.14,4.85,1.79,7.26c0.27,1,0.05,2.14-0.63,3.34c-0.62-1.39-1.56-2.72-1.79-4.17c-1.01-6.24-2.82-12.31-4.38-18.4
	c-1.85-7.2-3.22-14.54-5.66-21.6c-0.51-1.46-0.62-3.06-0.92-4.62c-7.97,0-15.63,0-23.17,0C33.89,67.31,29.83,83.54,25.7,100
	c-0.73-0.73-1.12-1.12-1.57-1.57c0.83-2.97,1.71-5.96,2.5-8.97c0.37-1.4,0.56-2.85,0.86-4.27c0.33-1.54,0.26-3.41,1.14-4.53
	c1.03-1.33-0.35-3.21,1.38-4.09c0.42-5.29,2.34-10.27,3.52-15.39c0.63-2.73,0.86-5.66,2.27-8.29c0.58-1.08,0.1-2.74,0.1-3.73
	c-5.22-7.78-10.25-15.27-15.11-22.52c-1.62,0-2.84,0-4.14,0c0,2.18,0,4.24,0,6.27c0.53,0.53,1.03,1.03,1.5,1.5
	c-0.83,0.67-1.67,1.34-2.73,2.19c-0.33-0.3-0.91-0.81-1.17-1.05c0.29-3.17,0.55-5.97,0.82-8.92c-3.28,0-6.18,0-9.4,0
	c0.01,2.74-0.51,5.55,1.25,8.69c-0.64,0.48-1.26,0.95-2.1,1.58c-0.68-0.61-1.25-1.12-1.48-1.32c0.29-3.78,0.55-7.15,0.83-10.67
	c5.37,0,10.8,0,16.07,0c4.71-4.71,9.26-9.26,13.68-13.68c-1.83-1.83-3.66-3.66-5.92-5.92c0.03,0-0.63,0-1.62,0
	c0.45-0.95,0.77-1.63,1.11-2.33c-0.33-0.68-0.67-1.37-1.3-2.65c1.35,0.37,2.14,0.58,3.14,0.85C29.8,0.97,30.49,0.63,31.76,0
	c-0.33,1.33-0.53,2.13-0.79,3.15c0.24,0.67,0.59,1.64,1.15,3.17c1.06,1.03,2.56,2.5,4.22,4.12c7.89,0,15.99,0,24.29,0
	c2.19-1.56,4.01-3.63,4.65-6.73c-0.25-0.51-0.6-1.21-1.22-2.47c1.32,0.32,2.11,0.51,3.18,0.77c0.37-0.18,1.06-0.53,2.32-1.15
	c-0.29,1.3-0.47,2.07-0.69,3.08c0.21,0.79,0.51,1.87,0.95,3.51c-0.97-0.61-1.37-0.86-2.02-1.27C65.96,7.49,64.57,9.43,62.77,10.92z
	 M42.85,12.22c-2.89,0-5.13,0-6.46,0c-4.88,4.88-9.3,9.3-13.82,13.82c5.25,7.16,9.82,15.21,15.19,22.25c8.34,0,16.16,0,23.76,0
	c4.67-7.5,9.24-14.84,13.79-22.14c-4.61-4.61-9.24-9.24-13.77-13.77c-2.11,0-4.17,0-6.54,0c0.32,3.01,0.63,5.81,0.95,8.82
	c-0.42,0.34-1.03,0.83-1.73,1.4c-0.69-0.78-1.2-1.36-1.88-2.13c1.84-2.69,1.16-5.48,1.08-8.11c-3.22,0-6.12,0-9.35,0
	c0.32,2.99,0.62,5.8,0.94,8.83c-0.4,0.33-1,0.82-1.71,1.41c-0.69-0.77-1.21-1.34-1.32-1.45C42.31,17.87,42.56,15.21,42.85,12.22z"/>
<path class="st0" d="M43.91,12.22c-0.29,2.99-0.55,5.66-0.86,8.94c0.1,0.12,0.62,0.69,1.32,1.45c0.71-0.59,1.31-1.08,1.71-1.41
	c-0.32-3.03-0.62-5.84-0.94-8.83c3.24,0,6.14,0,9.35,0c0.08,2.62,0.76,5.42-1.08,8.11c0.68,0.77,1.19,1.35,1.88,2.13
	c0.7-0.57,1.31-1.06,1.73-1.4c-0.33-3.01-0.63-5.82-0.95-8.82c2.38,0,4.44,0,6.54,0c4.53,4.53,9.16,9.16,13.77,13.77
	c-4.55,7.3-9.12,14.64-13.79,22.14c-7.61,0-15.42,0-23.76,0c-5.37-7.04-9.94-15.09-15.19-22.25c4.52-4.52,8.94-8.94,13.82-13.82
	C38.78,12.22,41.02,12.22,43.91,12.22z"/>
</svg>
