<?xml version="1.0" encoding="utf-8"?>
<!-- Generator: Adobe Illustrator 23.0.2, SVG Export Plug-In . SVG Version: 6.00 Build 0)  -->
<svg version="1.1" id="Layer_1" xmlns="http://www.w3.org/2000/svg" xmlns:xlink="http://www.w3.org/1999/xlink" x="0px" y="0px"
	 viewBox="0 0 100 100" style="enable-background:new 0 0 100 100;" xml:space="preserve">
<style type="text/css">
	.st0{fill:#FFFFFF;}
</style>
<path d="M23.48,8.73c0.37,1.43,0.74,2.86,1.17,4.53c15.82,0,31.82,0,47.94,0c0.22-0.22,0.55-0.55,1.21-1.21c0-0.89,0-2.1,0-3.32
	c0.63-0.32,1.27-0.63,1.9-0.95c0,1.74,0,3.48,0,5.62c7.49,0.19,15-0.01,22.34,0.11c0.48,0.48,0.82,0.82,1.14,1.14
	c0.26,2.86,0.52,5.71,0.81,8.91c-2.05,2-2.09,2.01-4.81-1.08c0.84-0.37,1.73-0.76,2.23-0.98c0-2.35,0-4.05,0-5.94
	c-1.46,0-2.95,0-4.53,0c0,1.65,0,3.21,0,5.03c0.52,0.59,1.23,1.37,2.13,2.38c-0.48,0.53-0.81,1.03-1.27,1.38
	c-1.71,1.32-2.8,0.26-3.47-0.55c0.29-3,0.54-5.54,0.81-8.27c-5.51,0-10.69,0-16.14,0c-0.56,3.61-1.38,7.41-2.28,11.14
	c-1.21,5.02-1.86,10.15-3.42,15.13c-0.99,3.18-1.28,6.72-2.05,10.07c-0.78,3.42,1.13,6.48,2.07,9.57c0.84,2.79,1.82,5.63,2.46,8.42
	c0.63,2.75,1.58,5.44,2.28,8.13c1.13,4.37,2.61,8.7,3.85,13.08c0.63,2.23,1.63,4.36,1.65,6.7c-2.6,0.74-1.68-1.9-2.85-2.35
	c0.24-4.17-2.38-7.59-2.99-11.61c-0.59-3.85-2.73-7.44-3.57-11.27c-1.3-5.92-3.32-11.58-5.05-17.29c-10.34,0-20.45,0-30.58,0
	c-5.52,14.22-10.28,28.75-16.1,42.88c-2.16-0.42-1.74-1.9-1.36-2.6c2.66-4.94,3.76-10.46,5.97-15.56
	c3.31-7.65,5.18-15.86,9.02-23.31c0.44-0.86,0.39-1.96,0.62-3.24c-3.47-12.33-5.96-25.38-9.98-37.98c-5.25,0-10.1,0-15.01,0
	c-0.69,2.67-0.26,5.17,0.78,7.37c-0.7,1.77-1.83,2.32-3.83,1.95c0.34-3,0.68-6.07,1.05-9.29c-1.15,0-1.9,0-3.04,0
	c0.48,2.02-0.73,4.02,0.87,6.15c0.86,1.15-0.17,2.63-2.03,3.36C0.88,24.52,0.24,23.93,0,23.7c0.35-3.65,0.65-6.82,0.97-10.14
	c7.03,0,14.1,0,21.57,0c-1.32-1.96-0.9-3.89-0.96-5.77c0.14-0.3,0.28-0.61,0.37-0.79C22.51,7.63,22.99,8.18,23.48,8.73z
	 M65.09,52.37c2.59-12.54,5.11-24.7,7.62-36.86c-6.69,0-13.13,0-19.87,0c0.37,2.2-0.56,4.3,0.94,6.34c0.47,0.65-0.03,2.01-0.09,3.01
	c-0.97,0-1.6,0-2.23,0c0.19-0.2,0.39-0.41,0.58-0.61c-0.78-0.28-1.57-0.55-2.91-1.02c2.52-2.57,1.74-5.16,1.9-7.75
	c-1.42,0-2.48,0-3.99,0c0.37,3.21,0.71,6.28,1.07,9.4c-1.03,0-1.71,0.16-2.28-0.04c-0.72-0.25-1.34-0.78-1.9-1.12
	c1.24-3.05,1.86-5.53,1.12-8.1c-6.58,0-13.13,0-19.81,0c0.8,4.65,2.03,8.97,3.16,13.24c1.12,4.23,1.6,8.71,3.61,12.71
	c-0.45,2.99,1.78,5.35,1.95,8.23c0.06,0.94,0.74,1.84,1.05,2.57C45.27,52.37,55.07,52.37,65.09,52.37z"/>
<path d="M50.64,7.79c-0.63,0.32-1.27,0.63-1.9,0.95c-0.58,0-1.16,0-2.44,0c0.97-1.48,1.59-2.42,2.22-3.37
	c-0.57-0.77-1.25-1.7-2.01-2.73c2.16-1.36,2.54,0.78,3.64,1.31c0.63-0.6,1.28-1.21,1.93-1.83c0.45,0.45,0.9,0.9,1.37,1.37
	c-0.61,0.65-1.23,1.3-1.72,1.83c0.67,0.97,1.31,1.91,1.96,2.85c-0.16,0.21-0.31,0.41-0.47,0.62C52.37,8.44,51.5,8.11,50.64,7.79z"/>
<path d="M51.09,8.73C50.6,8.18,50.11,7.63,49.56,7c-0.08,0.18-0.23,0.49-0.37,0.79c-0.76,0.37-1.52,0.73-2.39,1.15
	c-1.24-2.07,0.89-2.43,1.41-3.51c-0.6-0.64-1.22-1.29-1.83-1.94c0.47-0.47,0.92-0.92,1.43-1.43c0.5,0.58,1.01,1.15,1.59,1.82
	c1.07-0.68,2.07-1.32,3.19-2.03c1.04,2.13-0.99,2.52-1.38,3.56c0.7,0.82,1.37,1.61,2.44,2.87C52.4,8.5,51.74,8.62,51.09,8.73z"/>
<path class="st0" d="M66.11,52.37c-10.02,0-19.81,0-30.06,0c-0.31-0.72-0.99-1.63-1.05-2.57c-0.17-2.87-2.4-5.23-1.95-8.23
	c-2.01-4-2.49-8.48-3.61-12.71c-1.13-4.27-2.36-8.6-3.16-13.24c6.67,0,13.23,0,19.81,0c0.74,2.56,0.12,5.05-1.12,8.1
	c0.56,0.35,1.18,0.88,1.9,1.12c0.56,0.19,1.24,0.04,2.28,0.04c-0.35-3.12-0.7-6.18-1.07-9.4c1.51,0,2.57,0,3.99,0
	c-0.16,2.58,0.62,5.18-1.9,7.75c1.34,0.47,2.12,0.75,2.91,1.02c-0.19,0.2-0.39,0.41-0.58,0.61c0.63,0,1.26,0,2.23,0
	c0.06-1,0.56-2.37,0.09-3.01c-1.5-2.04-0.57-4.15-0.94-6.34c6.74,0,13.18,0,19.87,0C71.21,27.67,68.7,39.83,66.11,52.37z"/>
</svg>
