<?xml version="1.0" encoding="utf-8"?>
<!-- Generator: Adobe Illustrator 23.0.2, SVG Export Plug-In . SVG Version: 6.00 Build 0)  -->
<svg version="1.1" id="Layer_1" xmlns="http://www.w3.org/2000/svg" xmlns:xlink="http://www.w3.org/1999/xlink" x="0px" y="0px"
	 viewBox="0 0 100 100" style="enable-background:new 0 0 100 100;" xml:space="preserve">
<style type="text/css">
	.st0{fill:#010101;}
</style>
<g>
	<path class="st0" d="M49.07,99.83c-1.03,0.29-1.12,0.21-1.11-0.84c0.01-2.47,0-4.95,0-7.5c-0.85,0-1.67,0-2.49,0
		c-0.96,0-1-0.04-0.97-1.05c-0.91-0.11-1.84-0.18-2.76-0.32c-0.66-0.1-1.31-0.28-1.96-0.46c-0.16-0.04-0.29-0.23-0.43-0.36
		c0.14-0.14,0.27-0.38,0.43-0.42c0.88-0.21,1.78-0.39,2.67-0.54c0.64-0.11,1.29-0.17,1.94-0.23c0.38-0.04,0.53-0.2,0.5-0.59
		c-0.03-0.43-0.04-0.87,0-1.3c0.05-0.52-0.19-0.67-0.66-0.72c-1.19-0.12-2.38-0.26-3.56-0.42c-0.34-0.05-0.67-0.18-0.99-0.31
		c-0.14-0.06-0.32-0.22-0.32-0.35c0-0.12,0.17-0.32,0.3-0.36c0.51-0.17,1.03-0.35,1.56-0.43c1.03-0.16,2.07-0.28,3.11-0.38
		c0.41-0.04,0.58-0.17,0.56-0.59c-0.03-0.5-0.02-1,0-1.5c0.01-0.39-0.14-0.52-0.53-0.55c-1.11-0.1-2.21-0.22-3.3-0.39
		c-0.6-0.1-1.18-0.32-1.77-0.49c-0.01-0.11-0.02-0.21-0.04-0.31c0.32-0.16,0.62-0.42,0.96-0.48c1.24-0.22,2.49-0.4,3.74-0.55
		c0.93-0.11,0.94-0.07,0.94-0.98c0-1.6,0-1.58-1.58-1.75c-0.97-0.11-1.94-0.28-2.91-0.42c-0.15-0.02-0.31-0.04-0.44-0.12
		c-0.23-0.14-0.43-0.32-0.65-0.48c0.21-0.17,0.4-0.45,0.64-0.49c1.45-0.26,2.91-0.47,4.38-0.7c0.15-0.02,0.3-0.04,0.54-0.07
		c0-0.74,0.02-1.47-0.02-2.2c-0.01-0.12-0.31-0.29-0.5-0.32c-1.25-0.19-2.5-0.35-3.74-0.53c-0.25-0.04-0.52-0.11-0.75-0.22
		c-0.2-0.09-0.36-0.26-0.53-0.4c0.17-0.15,0.32-0.38,0.52-0.43c0.82-0.21,1.65-0.39,2.48-0.54c0.68-0.12,1.38-0.19,2.07-0.25
		c0.35-0.03,0.47-0.17,0.49-0.52c0.1-1.92,0.11-1.9-1.76-2.12c-0.99-0.12-1.97-0.31-2.95-0.51c-0.32-0.07-0.61-0.25-0.91-0.39
		c0-0.07,0-0.15,0-0.22c0.32-0.15,0.61-0.38,0.95-0.44c1.37-0.25,2.74-0.47,4.12-0.64c0.41-0.05,0.55-0.18,0.56-0.59
		c0.06-1.97,0.07-1.93-1.92-2.16c-1.11-0.13-2.2-0.43-3.3-0.68c-0.13-0.03-0.25-0.15-0.55-0.35c0.48-0.22,0.82-0.43,1.18-0.54
		c0.65-0.17,1.31-0.33,1.98-0.39c0.54-0.05,0.61-0.3,0.61-0.76c-0.01-4.09,0-8.18,0-12.27c0-1.36-0.03-2.73,0.01-4.09
		c0.02-0.52-0.19-0.67-0.65-0.75c-0.81-0.14-1.61-0.3-2.41-0.5c-0.2-0.05-0.36-0.28-0.53-0.42c0.18-0.14,0.34-0.36,0.54-0.39
		c1.39-0.26,2.77-0.54,4.17-0.71c0.68-0.08,0.9-0.3,0.88-1c-0.04-1.6,0-1.55-1.58-1.71c-1.14-0.12-2.27-0.36-3.4-0.59
		c-0.22-0.04-0.4-0.29-0.6-0.44c0.21-0.17,0.39-0.43,0.62-0.48c1.43-0.26,2.87-0.51,4.31-0.68c0.53-0.06,0.66-0.26,0.63-0.73
		c-0.03-0.46-0.02-0.91,0-1.37c0.02-0.39-0.13-0.5-0.53-0.55c-1.32-0.14-2.63-0.32-3.94-0.53c-0.4-0.07-0.78-0.3-1.16-0.46
		c0-0.09-0.01-0.18-0.01-0.26c0.33-0.15,0.65-0.37,1-0.43c1.26-0.22,2.53-0.4,3.8-0.55c0.59-0.07,0.86-0.22,0.84-0.9
		c-0.06-1.63-0.02-1.62-1.65-1.83c-1.01-0.13-2.02-0.28-3.02-0.47c-0.34-0.07-0.64-0.29-0.96-0.43c0-0.08-0.01-0.17-0.01-0.25
		c0.39-0.17,0.78-0.43,1.19-0.5c1.29-0.22,2.58-0.39,3.88-0.53c0.46-0.05,0.59-0.23,0.57-0.65c-0.04-0.61,0.18-1.4-0.12-1.77
		c-0.28-0.34-1.11-0.25-1.7-0.33c-0.88-0.13-1.77-0.22-2.64-0.4c-0.4-0.08-0.78-0.31-1.17-0.47c0-0.08-0.01-0.15-0.01-0.23
		c0.31-0.16,0.61-0.4,0.93-0.46c1.28-0.22,2.58-0.41,3.87-0.56c0.58-0.07,0.88-0.2,0.86-0.89c-0.05-1.66-0.01-1.65-1.64-1.85
		c-1.01-0.12-2.02-0.31-3.02-0.48c-0.21-0.04-0.43-0.11-0.61-0.21c-0.42-0.22-0.44-0.52,0.01-0.67c0.8-0.26,1.63-0.44,2.46-0.6
		c0.75-0.14,1.51-0.21,2.27-0.25c0.4-0.03,0.5-0.19,0.52-0.56c0.09-1.99,0.1-1.96-1.87-2.19c-1.05-0.12-2.1-0.35-3.14-0.57
		c-0.21-0.04-0.38-0.25-0.56-0.39c0.18-0.16,0.34-0.43,0.55-0.47c1.32-0.26,2.65-0.48,3.98-0.7c0.23-0.04,0.47-0.07,0.66-0.09
		c0.03-0.33-0.05-0.72,0.1-0.9c0.14-0.18,0.54-0.21,0.83-0.23c0.58-0.04,1.18-0.06,1.76-0.02c0.59,0.04,0.82-0.14,0.76-0.77
		c-0.06-0.67-0.01-1.35,0-2.02c0-0.18,0.05-0.36,0.07-0.54c0.07-0.01,0.15-0.01,0.22-0.02c0.08,0.44,0.16,0.89,0.25,1.34
		c0.01,0-0.09,0.02-0.2,0.05c0.3,0.3-0.36,1.01,0.52,1.08c-0.18,0.03-0.31,0.06-0.59,0.11c0.24,0.08,0.35,0.12,0.46,0.15
		c-0.08,0.04-0.17,0.08-0.41,0.19c1.22,0.12,2.26,0.23,3.3,0.34c0.01-0.05,0.02-0.11,0.03-0.16c-0.09-0.03-0.18-0.05-0.29-0.09
		c0.09-0.05,0.17-0.09,0.3-0.16c-0.16-0.04-0.27-0.07-0.43-0.12c0.18-0.03,0.32-0.06,0.55-0.1c-0.21-0.07-0.32-0.12-0.47-0.18
		c0.17-0.03,0.29-0.05,0.53-0.09c-0.18-0.07-0.26-0.11-0.29-0.12c0.07-0.14,0.21-0.29,0.19-0.42c-0.05-0.43-0.2-0.86-0.24-1.29
		c-0.02-0.2,0.16-0.41,0.2-0.63c0.09-0.44,0.05-0.85-0.36-1.11c0.08-0.01,0.18-0.02,0.42-0.05c-0.17-0.1-0.25-0.14-0.33-0.19
		c0.09-0.04,0.18-0.07,0.33-0.13c-0.15-0.05-0.25-0.08-0.36-0.11c0.08-0.07,0.25-0.15,0.24-0.21c-0.07-0.58,0.2-1.22-0.14-1.81
		c0,0,0.11-0.02,0.29-0.04c-0.14-0.17-0.25-0.32-0.36-0.47c0.07-0.02,0.18-0.04,0.24-0.06c-0.03-0.11-0.06-0.2-0.12-0.43
		c-0.48-0.07-1.12-0.17-1.76-0.27c0-0.01,0-0.03,0-0.04c0.71,0,1.41,0,2.22,0c0,2.77,0,5.54,0,8.36c1.02,0,1.96,0,2.89,0
		c0,0.03,0,0.07,0,0.1c-1.71,0-3.41-0.01-5.12,0.01c-0.2,0-0.4,0.2-0.6,0.3c0.19,0.09,0.39,0.25,0.58,0.25
		c1.65,0.02,3.31,0.02,4.96,0c0.25,0,0.51-0.14,0.81-0.24c-0.06,0.21-0.13,0.46-0.22,0.76c1.79,0.25,3.69,0.15,5.36,1.01
		c0.01,0.08,0.03,0.16,0.04,0.24c-0.29,0.15-0.56,0.38-0.86,0.43c-1.39,0.24-2.78,0.46-4.19,0.62c-0.46,0.05-0.6,0.2-0.59,0.63
		c0.02,0.63,0,1.26,0,1.95c1.87,0.29,3.86,0.14,5.6,1.07c0.01,0.11,0.02,0.21,0.03,0.31c-0.44,0.17-0.88,0.4-1.34,0.48
		c-1.14,0.19-2.29,0.3-3.43,0.45c-0.25,0.03-0.51,0.08-0.89,0.14c0,0.72-0.04,1.44,0.03,2.15c0.01,0.14,0.38,0.35,0.6,0.38
		c1.18,0.17,2.37,0.29,3.56,0.43c0.28,0.04,0.56,0.11,0.81,0.22c0.22,0.1,0.39,0.3,0.57,0.45c-0.19,0.16-0.36,0.43-0.57,0.47
		c-1.08,0.22-2.18,0.43-3.27,0.54c-1.7,0.17-1.7,0.13-1.72,1.84c0,0.28,0,0.56,0,0.84c1.9,0.39,3.87,0.13,5.59,1.06
		c0.02,0.08,0.04,0.16,0.06,0.25c-0.32,0.17-0.63,0.43-0.97,0.48c-1.26,0.22-2.53,0.4-3.8,0.52c-0.64,0.06-0.94,0.25-0.87,0.93
		c0.05,0.54,0.01,1.08,0.01,1.66c1.11,0.13,2.19,0.25,3.27,0.39c0.5,0.07,1,0.13,1.47,0.28c0.3,0.09,0.55,0.34,0.83,0.52
		c-0.25,0.18-0.48,0.44-0.76,0.53c-0.56,0.18-1.14,0.29-1.72,0.37c-0.82,0.11-1.64,0.2-2.47,0.24c-0.44,0.02-0.63,0.14-0.61,0.6
		c0.03,0.65,0.01,1.29,0.01,1.97c1.89,0.3,3.83,0.22,5.58,1.03c0.02,0.09,0.04,0.18,0.05,0.26c-0.35,0.17-0.67,0.43-1.04,0.49
		c-1.3,0.23-2.62,0.43-3.93,0.57c-0.54,0.06-0.71,0.25-0.68,0.77c0.04,0.56,0.01,1.12,0.01,1.74c1.14,0.14,2.26,0.25,3.37,0.42
		c0.62,0.1,1.22,0.29,1.82,0.47c0.14,0.04,0.25,0.19,0.37,0.29c-0.11,0.13-0.2,0.32-0.33,0.36c-0.75,0.21-1.5,0.39-2.26,0.57
		c-0.29,0.07-0.6,0.1-0.96,0.15c0,5.89,0,11.76,0,17.65c1.22,0.25,2.5,0.25,3.75,1.04c-0.44,0.22-0.74,0.47-1.07,0.52
		c-1.37,0.24-2.74,0.45-4.13,0.61c-0.42,0.05-0.58,0.16-0.57,0.58c0.02,0.65,0,1.3,0,1.97c1.89,0.33,3.86,0.18,5.59,1.1
		c0.01,0.1,0.02,0.19,0.03,0.29c-0.47,0.18-0.92,0.42-1.4,0.5c-1.22,0.21-2.45,0.36-3.68,0.5c-0.38,0.04-0.54,0.16-0.54,0.55
		c0.02,0.63,0,1.26,0,1.9c1.38,0.19,2.73,0.37,4.08,0.58c0.4,0.07,0.8,0.21,1.18,0.36c0.43,0.18,0.4,0.47,0.01,0.63
		c-0.5,0.2-1.03,0.36-1.56,0.44c-1.05,0.17-2.11,0.29-3.17,0.39c-0.39,0.04-0.55,0.15-0.54,0.54c0.01,0.67,0,1.34,0,2.01
		c1.26,0.15,2.49,0.29,3.72,0.46c0.47,0.07,0.93,0.21,1.38,0.36c0.18,0.06,0.3,0.26,0.46,0.4c-0.17,0.15-0.32,0.4-0.52,0.45
		c-0.84,0.19-1.7,0.35-2.56,0.48c-0.65,0.1-1.29,0.16-1.95,0.2c-0.37,0.03-0.55,0.15-0.54,0.55c0.02,0.65,0,1.3,0,2.01
		c0.83,0.07,1.63,0.11,2.42,0.23c0.86,0.12,1.71,0.3,2.55,0.5c0.22,0.05,0.39,0.29,0.58,0.44c-0.19,0.16-0.36,0.42-0.58,0.47
		c-0.69,0.18-1.4,0.31-2.11,0.42c-0.77,0.11-1.55,0.2-2.33,0.25c-0.38,0.03-0.55,0.14-0.54,0.54c0.02,0.67,0,1.34,0,2.03
		c1.87,0.37,3.84,0.15,5.57,1.03c0.02,0.08,0.04,0.16,0.05,0.25c-0.3,0.17-0.58,0.43-0.9,0.49c-1.26,0.22-2.53,0.39-3.8,0.54
		c-0.92,0.11-0.93,0.08-0.94,0.99c-0.01,0.52,0,1.04,0,1.57c1.89,0.34,3.84,0.2,5.65,1.07c-0.38,0.7-0.99,0.77-1.54,0.86
		c-1,0.15-2.02,0.24-3.03,0.36c-0.19,0.02-0.39,0.07-0.57,0.1c-0.14,1.05-0.14,1.05-1.24,1.05c-0.5,0-1,0.04-1.5-0.01
		c-0.58-0.06-0.8,0.14-0.8,0.75c0.01,2.31-0.02,4.61-0.04,6.92c0,0.24,0,0.47,0,0.89c-0.28-0.36-0.45-0.57-0.62-0.78
		c0.08-0.04,0.16-0.07,0.33-0.16c-0.2-0.05-0.3-0.08-0.37-0.1c0.11-0.05,0.35-0.12,0.34-0.18c-0.01-0.22-0.1-0.43-0.13-0.55
		c0.22-0.64,0.33-1.23-0.09-1.9c0.08,0,0.16-0.01,0.24-0.02c-0.08-0.04-0.17-0.07-0.3-0.12c0.13-0.05,0.23-0.08,0.29-0.1
		c-0.3-0.39,0.42-1.12-0.32-1.32c0.08-0.11,0.18-0.25,0.3-0.43c-0.09-0.03-0.18-0.06-0.32-0.11c0.14-0.05,0.25-0.08,0.39-0.13
		c-0.12-0.05-0.22-0.09-0.18-0.08c0-0.59,0-1.13,0-1.68c-0.08-0.02-0.18-0.05-0.31-0.09c0.14-0.03,0.26-0.06,0.51-0.11
		c-0.21-0.07-0.3-0.1-0.4-0.14c0.08-0.05,0.15-0.1,0.34-0.22c-1.15-0.12-2.18-0.23-3.2-0.34c-0.01,0.05-0.02,0.1-0.04,0.15
		c0.12,0.05,0.24,0.09,0.36,0.14c-0.11,0.03-0.25,0.06-0.53,0.14c0.25,0.06,0.34,0.08,0.45,0.11c-0.11,0.04-0.21,0.07-0.42,0.13
		c0.18,0.08,0.28,0.12,0.36,0.16c-0.1,0.02-0.21,0.04-0.47,0.08c0.24,0.08,0.33,0.11,0.47,0.16c-0.14,0.04-0.25,0.08-0.28,0.09
		c0,0.1,0.02,0.18,0.01,0.25c-0.01,0.39-0.04,0.79-0.03,1.18c0,0.07,0.19,0.12,0.3,0.18c-0.08,0.02-0.18,0.05-0.36,0.11
		c0.19,0.06,0.3,0.1,0.4,0.14c-0.59,0.17-0.3,0.67-0.3,0.99c0.01,0.41-0.43,0.88,0.09,1.25c-0.43,0.14,0.12,0.46-0.14,0.74
		c-0.18,0.18-0.05,0.69,0,1.04c0.03,0.17,0.19,0.32,0.28,0.46c-0.03,0-0.15,0.03-0.31,0.06c0.1,0.07,0.17,0.13,0.24,0.19
		c-0.07,0.03-0.13,0.06-0.28,0.11c0.35,0.11,0.64,0.2,0.93,0.29C49.17,99.71,49.12,99.78,49.07,99.83z M56.64,49.59
		C56.64,49.59,56.64,49.59,56.64,49.59c0-2.39-0.01-4.78,0-7.18c0-0.56-0.2-0.77-0.77-0.76c-1.24,0.03-2.48,0.03-3.72,0
		c-0.51-0.01-0.71,0.19-0.71,0.68c0,4.83,0,9.65,0,14.48c0,0.49,0.19,0.7,0.7,0.69c1.24-0.03,2.48-0.03,3.72,0
		c0.57,0.01,0.78-0.19,0.77-0.75C56.63,54.37,56.64,51.98,56.64,49.59z M59.38,15.69c-1.39-0.83-9.9-0.78-10.85,0.09
		C52.25,16.29,55.81,16.31,59.38,15.69z M59.38,20.71c0-0.13,0-0.25-0.01-0.38c-3.57-0.46-7.13-0.52-10.69,0.04
		c0,0.12,0,0.24,0,0.35C52.25,21.2,55.82,21.21,59.38,20.71z M49.27,69.47c0,0.13-0.01,0.25-0.01,0.38c0.75,0.08,1.5,0.23,2.24,0.22
		c2.63-0.02,5.26-0.09,7.89-0.15c0.22,0,0.44-0.14,0.66-0.21c-0.01-0.08-0.03-0.16-0.04-0.24C56.43,68.98,52.85,68.96,49.27,69.47z
		 M60.01,89.32c-1.26-0.83-9.67-0.79-10.9,0.06C52.86,89.93,56.43,89.9,60.01,89.32z M49.29,79.33c1.29,0.84,9.8,0.8,10.86-0.07
		C56.43,78.76,52.86,78.74,49.29,79.33z M48.7,10.81c3.56,0.5,7.11,0.54,10.67-0.01C58.23,9.96,49.78,9.97,48.7,10.81z M48.67,25.35
		c1.26,0.83,9.83,0.79,10.84-0.08C55.8,24.78,52.23,24.76,48.67,25.35z M49.27,74.46c1.14,0.83,9.68,0.82,10.91-0.04
		C56.43,73.89,52.85,73.89,49.27,74.46z M48.64,30.27c1.55,0.74,9.89,0.68,10.73-0.05C57.99,29.56,49.86,29.58,48.64,30.27z
		 M60.01,84.43c-1.31-0.82-9.86-0.77-10.87,0.09C52.87,84.99,56.45,85.03,60.01,84.43z M59.37,40.15c-1.3-0.76-9.91-0.7-10.8,0.09
		C52.26,40.76,55.81,40.77,59.37,40.15z M49.26,64.66c1.23,0.79,10.14,0.73,10.82-0.11C56.41,64.08,52.83,64.03,49.26,64.66z
		 M49.23,59.82c1.56,0.7,10.04,0.62,10.81-0.07C58.52,59.11,50.54,59.14,49.23,59.82z M48.67,35.09c1.13,0.83,9.74,0.82,10.69-0.03
		C55.8,34.63,52.23,34.57,48.67,35.09z M52.65,91.19c0.67,0,1.34,0.02,2.01-0.01c0.18-0.01,0.35-0.16,0.52-0.25
		c-0.16-0.09-0.32-0.26-0.49-0.26c-1.41-0.02-2.82-0.02-4.22,0c-0.15,0-0.3,0.15-0.45,0.23c0.16,0.1,0.32,0.27,0.48,0.28
		C51.22,91.21,51.94,91.19,52.65,91.19z"/>
	<path class="st0" d="M48.26,1.17c0.3,0.64,0.06,1.3,0.11,1.94c0.01,0.17,0.12,0.33,0.19,0.51c0.05-0.01-0.05,0.01-0.23,0.06
		c0.15,0.07,0.24,0.11,0.34,0.16c-0.12,0.04-0.24,0.07-0.29,0.08c0.03,0.17,0.09,0.32,0.06,0.44c-0.05,0.2-0.17,0.39-0.25,0.58
		c-0.07-0.17-0.2-0.34-0.2-0.51c-0.02-0.97-0.01-1.95,0-2.92c0-0.12,0.09-0.25,0.14-0.37C48.16,1.16,48.21,1.17,48.26,1.17z"/>
	<path class="st0" d="M49.07,99.83c0.05-0.06,0.11-0.12,0.16-0.18c0.7,0.05,1.39,0.1,2.09,0.14c0,0.07-0.01,0.13-0.01,0.2
		C50.56,99.94,49.81,99.89,49.07,99.83z"/>
	<path class="st0" d="M48.26,1.17c-0.05,0-0.1-0.01-0.15-0.01c-0.06-0.37-0.12-0.73-0.18-1.15C48.46,0.17,48.56,0.75,48.26,1.17z"/>
</g>
</svg>
