<?xml version="1.0" encoding="utf-8"?>
<!-- Generator: Adobe Illustrator 23.0.2, SVG Export Plug-In . SVG Version: 6.00 Build 0)  -->
<svg version="1.1" id="Layer_1" xmlns="http://www.w3.org/2000/svg" xmlns:xlink="http://www.w3.org/1999/xlink" x="0px" y="0px"
	 viewBox="0 0 100 100" style="enable-background:new 0 0 100 100;" xml:space="preserve">
<path d="M23.5,8.7c0.4,1.4,0.7,2.9,1.2,4.5c15.8,0,31.8,0,47.9,0c0.2-0.2,0.6-0.6,1.2-1.2c0-0.9,0-2.1,0-3.3
	c0.6-0.3,1.3-0.6,1.9-0.9c0,1.7,0,3.5,0,5.6c7.5,0.2,15,0,22.3,0.1c0.5,0.5,0.8,0.8,1.1,1.1c0.3,2.9,0.5,5.7,0.8,8.9
	c-2.1,2-2.1,2-4.8-1.1c0.8-0.4,1.7-0.8,2.2-1c0-2.4,0-4.1,0-5.9c-1.5,0-2.9,0-4.5,0c0,1.6,0,3.2,0,5c0.5,0.6,1.2,1.4,2.1,2.4
	c-0.5,0.5-0.8,1-1.3,1.4c-1.7,1.3-2.8,0.3-3.5-0.5c0.3-3,0.5-5.5,0.8-8.3c-5.5,0-10.7,0-16.1,0c-0.6,3.6-1.4,7.4-2.3,11.1
	c-1.2,5-1.9,10.1-3.4,15.1c-1,3.2-1.3,6.7-2.1,10.1c-0.8,3.4,1.1,6.5,2.1,9.6c0.8,2.8,1.8,5.6,2.5,8.4c0.6,2.8,1.6,5.4,2.3,8.1
	c1.1,4.4,2.6,8.7,3.8,13.1c0.6,2.2,1.6,4.4,1.7,6.7c-2.6,0.7-1.7-1.9-2.8-2.3c0.2-4.2-2.4-7.6-3-11.6c-0.6-3.8-2.7-7.4-3.6-11.3
	C68.8,66.6,66.8,61,65,55.2c-10.3,0-20.5,0-30.6,0C28.9,69.5,24.2,84,18.4,98.1c-2.2-0.4-1.7-1.9-1.4-2.6c2.7-4.9,3.8-10.5,6-15.6
	c3.3-7.7,5.2-15.9,9-23.3c0.4-0.9,0.4-2,0.6-3.2c-3.5-12.3-6-25.4-10-38c-5.3,0-10.1,0-15,0c-0.7,2.7-0.3,5.2,0.8,7.4
	c-0.7,1.8-1.8,2.3-3.8,2c0.3-3,0.7-6.1,1.1-9.3c-1.2,0-1.9,0-3,0c0.5,2-0.7,4,0.9,6.2c0.9,1.1-0.2,2.6-2,3.4c-0.5-0.5-1.2-1-1.4-1.3
	c0.3-3.6,0.6-6.8,1-10.1c7,0,14.1,0,21.6,0c-1.3-2-0.9-3.9-1-5.8C21.7,7.5,21.9,7.2,22,7C22.5,7.6,23,8.2,23.5,8.7z M65.1,52.4
	c2.6-12.5,5.1-24.7,7.6-36.9c-6.7,0-13.1,0-19.9,0c0.4,2.2-0.6,4.3,0.9,6.3c0.5,0.6,0,2-0.1,3c-1,0-1.6,0-2.2,0
	c0.2-0.2,0.4-0.4,0.6-0.6c-0.8-0.3-1.6-0.5-2.9-1c2.5-2.6,1.7-5.2,1.9-7.8c-1.4,0-2.5,0-4,0c0.4,3.2,0.7,6.3,1.1,9.4
	c-1,0-1.7,0.2-2.3,0c-0.7-0.3-1.3-0.8-1.9-1.1c1.2-3,1.9-5.5,1.1-8.1c-6.6,0-13.1,0-19.8,0c0.8,4.6,2,9,3.2,13.2
	c1.1,4.2,1.6,8.7,3.6,12.7c-0.5,3,1.8,5.3,2,8.2c0.1,0.9,0.7,1.8,1,2.6C45.3,52.4,55.1,52.4,65.1,52.4z"/>
<path d="M50.6,7.8c-0.6,0.3-1.3,0.6-1.9,0.9c-0.6,0-1.2,0-2.4,0c1-1.5,1.6-2.4,2.2-3.4c-0.6-0.8-1.3-1.7-2-2.7
	c2.2-1.4,2.5,0.8,3.6,1.3c0.6-0.6,1.3-1.2,1.9-1.8C52.5,2.6,53,3,53.5,3.5c-0.6,0.7-1.2,1.3-1.7,1.8c0.7,1,1.3,1.9,2,2.9
	c-0.2,0.2-0.3,0.4-0.5,0.6C52.4,8.4,51.5,8.1,50.6,7.8z"/>
<path d="M51.1,8.7c-0.5-0.5-1-1.1-1.5-1.7c-0.1,0.2-0.2,0.5-0.4,0.8c-0.8,0.4-1.5,0.7-2.4,1.1c-1.2-2.1,0.9-2.4,1.4-3.5
	c-0.6-0.6-1.2-1.3-1.8-1.9c0.5-0.5,0.9-0.9,1.4-1.4c0.5,0.6,1,1.2,1.6,1.8c1.1-0.7,2.1-1.3,3.2-2c1,2.1-1,2.5-1.4,3.6
	c0.7,0.8,1.4,1.6,2.4,2.9C52.4,8.5,51.7,8.6,51.1,8.7z"/>
</svg>
