<?xml version="1.0" encoding="utf-8"?>
<!-- Generator: Adobe Illustrator 23.0.2, SVG Export Plug-In . SVG Version: 6.00 Build 0)  -->
<svg version="1.1" id="Layer_1" xmlns="http://www.w3.org/2000/svg" xmlns:xlink="http://www.w3.org/1999/xlink" x="0px" y="0px"
	 viewBox="0 0 100 100" style="enable-background:new 0 0 100 100;" xml:space="preserve">
<path d="M49.33,99.65c-0.02-10.42-0.02-20.83-0.02-31.39c-5.71,0-11.35,0-17.06,0c0,1.91,0,3.73,0,5.66
	c0.37,0.08,0.71,0.14,1.12,0.23c0.87,1.11,0.31,2.09-0.67,2.71c-1.16,0.73-2.04-0.04-2.88-1.16c0.44-0.6,0.92-1.26,1.62-2.23
	c0-1.95,0-4.28,0-6.73c5.93,0,11.73,0,17.7,0c0-7.26,0-14.38,0-21.61c-5.54,0-11.09,0-16.8,0c0,1.26,0,2.59,0,4.12
	c0.39,0.43,0.96,1.04,1.45,1.56c-0.58,1.41-1.39,1.98-1.99,1.8c-1.03-0.63-1.55-0.95-2.31-1.41c0.81-0.87,1.36-1.48,1.95-2.11
	c0-1.94,0-3.93,0-6.26c5.88-0.06,11.77,0,17.77-0.04c0-5.94,0-11.73,0-17.7c-5.56,0-11.2,0-17.19,0c0.27,2.15,0.54,4.22,0.82,6.42
	c-0.86,0-1.69,0-2.54,0c-0.23-1.69-0.23-1.69,1.15-3.23c0-1.74,0-3.1,0-4.82c5.88-0.04,11.77,0,17.77-0.03c0-4.95,0-9.75,0-14.72
	c-3.48,0-7.04,0-10.96,0c-1.16-1.24-2.41-2.58-3.57-3.82c-0.67-0.1-1.23-0.18-2.16-0.32c0.72-0.98,1.21-1.64,1.86-2.53
	c-0.53-0.23-1.2-0.52-1.88-0.8c0.18-0.27,0.36-0.54,0.54-0.8c0.67,0.16,1.35,0.32,2.21,0.52c0.72-0.19,1.68-0.46,3.42-0.93
	c-1.08,1.22-1.6,1.79-2.29,2.57c0.62,0.67,1.18,1.27,1.74,1.87c-0.17,0.17-0.35,0.35-0.31,0.31C38.39,5.4,39,6.07,39.85,7.01
	c6.42,0,13.36,0,20.29,0c1.25-1.25,2.47-2.48,3.83-3.84c0.7,0,1.54,0,2.65,0c-0.39-0.93-0.7-1.64-1.19-2.8
	c1.02,0.21,1.69,0.35,2.7,0.56c0.33-0.13,1.04-0.4,2.38-0.93C70,1.21,69.75,1.8,69.46,2.48c0.23,0.59,0.51,1.3,1.04,2.65
	c-1.2-0.5-1.78-0.74-2.66-1.11c-0.26,0.17-0.75,0.47-1.38,0.87c-0.33-0.21-0.71-0.45-1.03-0.65c-1.42,1.43-2.89,2.89-4.34,4.34
	c-3.49,0-6.8,0-10.21,0c0,4.93,0,9.74,0,14.69c5.78,0,11.58,0,17.56,0c0.4,1.53,0.08,3,0.25,4.42c0.15,1.24,0.52,2.45,0.82,3.82
	c-1.1,0-1.93,0-3.04,0c0.3-2.05,0.61-4.12,0.95-6.47c-5.63-0.29-11.02-0.05-16.52-0.16c0,5.97,0,11.77,0,17.83
	c5.56,0,11.2,0,16.58,0c0.53,0.53,0.79,0.79,0.97,0.97c0.27,2.92,0.53,5.76,0.8,8.69c-0.84,0-1.67,0-2.62,0
	c-0.06-0.28-0.22-0.63-0.18-0.95c0.3-2,0.64-3.99,1.03-6.36c-5.68-0.08-11.07-0.01-16.58-0.05c0,7.2,0,14.24,0,21.54
	c5.81,0,11.7,0,17.56,0c0.23,3.24,0.45,6.22,0.7,9.71c-0.48,0.23-1.37,0.64-2.76,1.29c0.37-3.39,0.68-6.21,1.02-9.4
	c-5.62-0.08-11.01-0.01-16.53-0.05c0,10.67,0,21.19,0,31.75"/>
</svg>
