<?xml version="1.0" encoding="utf-8"?>
<!-- Generator: Adobe Illustrator 23.0.2, SVG Export Plug-In . SVG Version: 6.00 Build 0)  -->
<svg version="1.1" id="Layer_1" xmlns="http://www.w3.org/2000/svg" xmlns:xlink="http://www.w3.org/1999/xlink" x="0px" y="0px"
	 viewBox="0 0 100 100" style="enable-background:new 0 0 100 100;" xml:space="preserve">
<path d="M96.53,14.04c-0.59-0.85-1.04-1.51-1.51-2.19c1.37-0.86,1.65,0.37,2.33,0.8c0.68-0.41,1.38-0.84,2.11-1.28
	c0.73,1.41-0.51,1.65-0.91,2.31c0.45,0.63,0.91,1.27,1.45,2.03c-0.59,0.2-0.96,0.33-1.58,0.55c0.3,4.37-0.62,8.86,0.8,13.39
	c-1.43,0.23-2.67,0.55-3.5-1.24c0.41-0.46,0.89-1.01,1.41-1.6c0-1.23,0-2.54,0-4.04c-1.32-0.33-2.71-0.12-4.08-0.15
	c-1.4-0.03-2.81-0.01-4.35-0.01c-0.21,2.42-0.17,4.69,0.74,7.07c-1.03,0-1.84,0-2.66,0c0.23-2.32,0.46-4.59,0.69-6.98
	c-9.99,0-19.67,0-29.6,0c-0.05,2.24-0.31,4.53,0.87,6.98c-1.05,0.06-1.85,0.1-2.75,0.15c0.24-2.4,0.46-4.67,0.7-7.09
	c-2.13,0-4.04,0-6.05,0c0,21.98,0,43.88,0,65.86c-0.4,0.08-0.69,0.13-1.23,0.24c0-22.07,0-44.06,0-66.14c-2.27,0-4.31,0-6.61,0
	c-0.03,2.25-0.31,4.54,0.85,6.92c-0.6,0.08-0.99,0.16-1.39,0.18c-0.42,0.03-0.84,0.01-1.33,0.01c0.24-2.39,0.46-4.66,0.7-7.07
	c-9.78,0-19.32,0-29.15,0c0.23,2.37,0.45,4.64,0.68,6.98c-0.74,0-1.48,0-2.53,0c0.24-1.08,0.57-2.12,0.67-3.18
	c0.12-1.19,0.03-2.4,0.03-3.85c-1.25-0.03-2.52-0.06-3.79-0.08c-1.29-0.01-2.59,0-3.96,0c-0.32,2.43-0.13,4.7,0.66,7
	c-1.34,0.28-2.49,0.56-3.31-0.7c0.9-1.3,1.34-2.69,1.27-4.34c-0.13-2.94-0.04-5.89-0.04-9.21c-0.43,0.26-0.7,0.42-1.03,0.62
	c-0.23-0.22-0.53-0.5-1.05-0.99c0.62-0.26,1.22-0.51,1.67-0.7c-0.78-1.1-1.24-1.75-1.77-2.48c1.5-0.82,1.77,0.62,2.4,0.88
	c0.72-0.48,1.37-0.91,2.03-1.34c0.96,1.44-0.62,1.54-0.68,2.58c0.28,0.37,0.74,0.99,1.38,1.83c-0.65,0.18-1.02,0.28-1.51,0.42
	c0,1.34,0,2.72,0,4.14c2.56,0.48,35.87,0.66,45.61,0.21c0-1.59,0-3.2,0-5.15c-0.35,0.24-0.61,0.42-0.91,0.63
	c-0.63-0.89-0.44-1.7,0.43-2.27c-0.3-0.78-0.54-1.4-1-2.57c1.08,0.46,1.6,0.69,2.18,0.94c0.53-0.21,1.15-0.45,2.33-0.91
	c-0.45,1.07-0.67,1.58-0.9,2.12c0.23,0.79,0.47,1.64,0.84,2.94c-0.74-0.42-1.02-0.59-1.43-0.82c0,1.67,0,3.27,0,4.9
	c2.56,0.45,37.96,0.61,46.28,0.18c0-1.6,0-3.2,0-4.89c-0.51-0.54-0.48,0.5-1.2,0.11c0.02,0.03-0.25-0.3-0.62-0.76
	C95.64,14.68,96.15,14.31,96.53,14.04z"/>
</svg>
