<?xml version="1.0" encoding="utf-8"?>
<!-- Generator: Adobe Illustrator 23.0.2, SVG Export Plug-In . SVG Version: 6.00 Build 0)  -->
<svg version="1.1" id="Layer_1" xmlns="http://www.w3.org/2000/svg" xmlns:xlink="http://www.w3.org/1999/xlink" x="0px" y="0px"
	 viewBox="0 0 100 100" style="enable-background:new 0 0 100 100;" xml:space="preserve">
<path d="M72.8,17.1c0,5.4,0,10.7,0,16.1c-4.9,5-10,9.9-14.9,14.9c-2.5,2.6-4.9,5.2-7.3,7.8c0,14.8,0,29.3,0,43.9
	c-0.5,0-0.9,0.1-1.5,0.1c0-14.9,0-29.7,0-44.3c-8.5-7.6-16.7-15-24.9-22.4c0-5.3,0-10.6,0-16.1c-4.3,0-8.7,0-13.4,0
	c0.3,2.7,0.5,5.3,0.9,8.4c-0.2,0.1-0.8,0.5-1.9,1.1c0.2,0-0.4,0-1,0c-0.4-0.4-0.8-0.9-1.1-1.1c0.3-3.4,0.6-6.7,0.9-10.2
	c0.2-0.2,0.6-0.6,1.2-1.2c4.4,0,8.9,0,14,0c-1.4-2.8-2.7-5.4-4-8c-0.5,0.5-0.8,0.7-1.2,1c-0.4-0.4-0.8-0.8-1.4-1.4
	c0.7-0.5,1.4-0.9,2.3-1.5c-0.9-1.2-1.5-2.1-2.1-2.9C17.5,1,17.9,0.6,18.5,0c0.5,0.7,1.1,1.4,1.6,2.1c0.5-0.2,0.9-0.4,1.3-0.6
	c0.8-0.5,1.1-1.9,2.5-1.1c0.9,1.7-1.4,1.9-1.6,3.4c0.6,0.8,1.3,1.8,2.1,3c-0.8,0.3-1.3,0.4-2,0.7c1.2,2.3,2.3,4.5,3.5,6.7
	c15.3,0,30.5,0,45.6,0c1.3-2.5,2.5-5.1,3.8-7.6c-0.5-0.2-1.1-0.4-1.9-0.7c0.7-1,1.3-1.9,1.9-2.7c-0.6-0.8-1.2-1.7-1.8-2.7
	c1.9-1.1,2.3,0.5,3.1,1.1c0.9-0.6,1.9-1.1,2.8-1.7c0.2,0.2,0.4,0.4,0.6,0.6c-0.5,0.9-1.1,1.8-1.8,2.9c0.5,0.3,1.2,0.8,1.5,1
	c0,1.2,0,1.9,0,2.6c-0.1,0.1-0.3,0.2-0.4,0.3c-0.3-0.8-0.7-1.6-1.1-2.6c-1.7,3.6-2.9,6.5-4.3,9.5c6,0,12.1,0,18.5,0
	c-0.8,3.7-2,7.2,0.2,10.6c-0.6,0.7-1.2,1.3-1.6,1.9c-2.8-0.4-2.8-0.4-3.1-3.1c0.5-0.5,1-1,1.7-1.6c0-1.5,0-3.1,0-4.8
	C84,17.1,78.6,17.1,72.8,17.1z M70.8,32.2c0-4.9,0-10,0-15.3c-6.9,0-13.7,0-20.4,0c-0.1,0-0.3,0.1-0.4,0.2s-0.2,0.2-0.5,0.6
	c0.3,2.3,0.6,4.8,1,7.7c-0.4,1.1-1.5,1.5-3,1.3c-0.4-0.7-0.7-1.5-1.2-2.2c1.8-2.1,1.8-4.7,1.5-7.4c-7.1,0-14,0-21,0
	c0,5.2,0,10.3,0,15.5c2.7,2.4,5.2,5.1,8.2,7.5c4.4,3.5,8.4,7.6,12.5,11.5c0.7,0.7,1.5,1.3,2.1,1.8C56.8,46.1,63.8,39.2,70.8,32.2z"
	/>
</svg>
