<?xml version="1.0" encoding="utf-8"?>
<!-- Generator: Adobe Illustrator 23.0.2, SVG Export Plug-In . SVG Version: 6.00 Build 0)  -->
<svg version="1.1" id="Layer_1" xmlns="http://www.w3.org/2000/svg" xmlns:xlink="http://www.w3.org/1999/xlink" x="0px" y="0px"
	 viewBox="0 0 100 100" style="enable-background:new 0 0 100 100;" xml:space="preserve">
<path d="M50.65,23.83c-4.06,0-8.01,0-12.22,0c0.22,2.64-0.66,5.27,1.19,7.63c-0.66,0.83-1.11,1.38-2.09,2.59
	c-0.45-1.44-0.69-2.2-1.09-3.47c1.08-2.18,0.27-5.49,0.5-8.76c0.06-0.07,0.13-0.18,0.23-0.25c0.09-0.07,0.22-0.13,0.33-0.13
	c4.34-0.01,8.69-0.01,13.16-0.01c0-5.1,0-10.07,0-15.21c-0.57-0.1-1.28-0.23-2.22-0.4c0.61-0.7,1.12-1.3,1.72-2
	c-0.64-0.9-1.25-1.77-1.91-2.7c1.84-1.35,2.08,1.08,3.37,1.04c0.78-0.53,1.66-1.11,3.25-2.18c-0.84,1.78-1.31,2.77-1.86,3.92
	c0.5,0.56,1.04,1.17,1.76,1.99c-0.86,0-1.46,0-2.26,0c0,12.38,0,24.63,0,37.01c5.7,0,11.43,0,17.35,0c0,2.25,0,4.39,0,6.33
	c0.73,0.85,1.29,1.5,1.78,2.07c-0.45,1.52-1.43,1.85-2.53,1.73c-0.58-0.44-1.08-0.82-1.22-0.92c0.28-2.73,0.52-5.03,0.77-7.47
	c-5.58,0-10.81,0-16.29,0c0,18.38,0,36.79,0,55.26c-0.6,0.04-0.95,0.06-1.45,0.09c0-11.19,0-22.32,0-33.28
	c-0.23-0.26-0.29-0.37-0.39-0.45c-0.09-0.07-0.21-0.14-0.32-0.14c-6.4-0.01-12.8-0.01-19.33-0.01c0,2,0,3.89,0,6.15
	c0.33,0.25,0.93,0.72,1.57,1.21c-0.22,0.46-0.35,0.79-0.53,1.1c-0.78,1.29-2.06,0.57-3.09,0.84c-1.4-1.98,0.7-3.55,0.43-5.4
	c-0.25-1.73-0.05-3.53-0.05-5.42c7.26,0,14.28,0,21.43,0C50.65,51.04,50.65,37.6,50.65,23.83z"/>
</svg>
