<?xml version="1.0" encoding="utf-8"?>
<!-- Generator: Adobe Illustrator 23.0.2, SVG Export Plug-In . SVG Version: 6.00 Build 0)  -->
<svg version="1.1" id="Layer_1" xmlns="http://www.w3.org/2000/svg" xmlns:xlink="http://www.w3.org/1999/xlink" x="0px" y="0px"
	 viewBox="0 0 100 100" style="enable-background:new 0 0 100 100;" xml:space="preserve">
<path d="M51.08,4.94c0,5.2,0,10.4,0,15.88c6,0.25,12.02-0.02,18.17,0.15c0,1.96,0,3.83,0,5.92c0.48,0.48,1.01,1.01,1.72,1.72
	c-0.35,0.42-0.8,0.96-1.44,1.72c-0.87-0.4-1.72-0.79-2.3-1.05c0.29-2.12,0.54-3.91,0.82-5.9c-5.77,0-11.27,0-16.87,0
	c0,5.94,0,11.87,0,18.06c4.72,0,9.47,0,14.29,0c0,2.27,0,4.28,0,6.34c0.57,0.64,1.14,1.27,1.86,2.08c-0.38,0.42-0.65,0.82-1.01,1.11
	c-1.38,1.11-2.25,0.22-3.2-1.03c0.47-0.61,0.98-1.28,1.59-2.07c0-1.43,0-3.04,0-4.76c-4.48,0-8.88,0-13.45,0c0,7.22,0,14.5,0,21.91
	c5.95,0,11.88,0,17.89,0c0.74,3.25-0.82,6.81,1.68,9.62c-0.27,0.27-0.54,0.54-0.95,0.95c-0.8,0-1.74,0-2.65,0
	c0.27-2.75,0.53-5.38,0.79-8.14c-5.8,0-11.21,0-16.89,0c0,10.82,0,21.65,0,32.56c-0.61,0-0.95,0-1.43,0c0-10.78,0-21.52,0-32.52
	c-5.63-0.29-11.14-0.05-16.91-0.16c0.15,2.83-0.48,5.52,1.31,8.25c-1.53,0-2.47,0-3.32,0c0.25-3.48,0.49-6.89,0.74-10.42
	c5.87,0,11.79,0,17.88,0c0-7.41,0-14.69,0-22.06c-4.18,0-8.33,0-12.81,0c0.36,1.89-0.65,3.83,0.76,5.67
	c0.41,0.54-0.23,1.51-1.61,2.79c-0.5-0.47-1-0.94-1.61-1.51c1.5-2.7,0.75-5.61,1.06-8.51c4.77,0,9.42,0,14.23,0
	c0-6.14,0-12.16,0-18.24c-6.01,0-11.93,0-17.84,0c-0.99,1.92,0.33,3.57,0.53,5.21c-0.52,1.35-1.42,1.79-2.69,1.56
	c-0.13-0.19-0.41-0.42-0.38-0.58c0.66-2.79,0.39-5.77,1.42-8.54c6.49,0,12.66,0,19.11,0c0-5.42,0-10.71,0-16
	C50.07,4.94,50.58,4.94,51.08,4.94z"/>
<path d="M50.76,4.94c-0.51,0-1.01,0-1.52,0c-0.47,0-0.94,0-1.8,0c0.45-0.98,0.72-1.59,1.01-2.22C48.2,2.07,47.92,1.36,47.39,0
	c1.25,0.54,1.85,0.8,2.53,1.1c0.61-0.24,1.33-0.52,2.7-1.06c-0.51,1.22-0.75,1.81-1.07,2.57c0.22,0.54,0.52,1.27,0.97,2.34
	C51.69,4.94,51.22,4.94,50.76,4.94z"/>
</svg>
