<?xml version="1.0" encoding="utf-8"?>
<!-- Generator: Adobe Illustrator 23.0.2, SVG Export Plug-In . SVG Version: 6.00 Build 0)  -->
<svg version="1.1" id="Layer_1" xmlns="http://www.w3.org/2000/svg" xmlns:xlink="http://www.w3.org/1999/xlink" x="0px" y="0px"
	 viewBox="0 0 100 100" style="enable-background:new 0 0 100 100;" xml:space="preserve">
<path d="M62.8,10.9c4.6,4.6,9.2,9.2,13.9,13.9c5.8,0,11.8,0,18,0c0,3,0,5.9,0,8.7c0.8,0.9,1.4,1.5,2.1,2.2c-2.3,2.4-2.3,2.4-4.5,0.1
	c1.5-2.7,0.9-5.8,1-9.1c-1.5,0-3-0.1-4.4-0.1c-1.5,0-3.1,0-4.8,0c-0.3,3.7-0.1,7.1,1,10.6c-2.2,0.2-2.2,0.2-3.7-1.3
	c1.5-2.9,0.8-6,1-9.2c-1.8,0-3.3,0-4.8,0c-4.8,7.8-9.7,15.5-14.6,23.3c1.6,7.1,3.6,14,5.2,21.1c0.7,3,1.5,6.1,2.4,9.1
	s1.7,6.1,2.4,9.1c0.6,2.4,1.1,4.8,1.8,7.3c0.3,1,0.1,2.1-0.6,3.3c-0.6-1.4-1.6-2.7-1.8-4.2c-1-6.2-2.8-12.3-4.4-18.4
	c-1.8-7.2-3.2-14.5-5.7-21.6c-0.5-1.5-0.6-3.1-0.9-4.6c-8,0-15.6,0-23.2,0c-4.1,16.3-8.2,32.6-12.3,49c-0.7-0.7-1.1-1.1-1.6-1.6
	c0.8-3,1.7-6,2.5-9c0.4-1.4,0.6-2.8,0.9-4.3c0.3-1.5,0.3-3.4,1.1-4.5c1-1.3-0.4-3.2,1.4-4.1c0.4-5.3,2.3-10.3,3.5-15.4
	c0.6-2.7,0.9-5.7,2.3-8.3c0.6-1.1,0.1-2.7,0.1-3.7c-5.2-7.8-10.3-15.3-15.1-22.5c-1.6,0-2.8,0-4.1,0c0,2.2,0,4.2,0,6.3
	c0.5,0.5,1,1,1.5,1.5c-0.8,0.7-1.7,1.3-2.7,2.2c-0.3-0.3-0.9-0.8-1.2-1c0.3-3.2,0.6-6,0.8-8.9c-3.3,0-6.2,0-9.4,0
	c0,2.7-0.5,5.6,1.3,8.7c-0.6,0.5-1.3,1-2.1,1.6c-0.7-0.6-1.3-1.1-1.5-1.3c0.3-3.8,0.5-7.1,0.8-10.7c5.4,0,10.8,0,16.1,0
	c4.7-4.7,9.3-9.3,13.7-13.7c-1.8-1.8-3.7-3.7-5.9-5.9c0,0-0.6,0-1.6,0c0.5-0.9,0.8-1.6,1.1-2.3c-0.3-0.7-0.7-1.4-1.3-2.7
	c1.4,0.4,2.1,0.6,3.1,0.9C29.8,1,30.5,0.6,31.8,0c-0.3,1.3-0.5,2.1-0.8,3.2c0.2,0.7,0.6,1.6,1.1,3.2c1.1,1,2.6,2.5,4.2,4.1
	c7.9,0,16,0,24.3,0c2.2-1.6,4-3.6,4.6-6.7c-0.3-0.5-0.6-1.2-1.2-2.5c1.3,0.3,2.1,0.5,3.2,0.8c0.4-0.2,1.1-0.5,2.3-1.1
	c-0.3,1.3-0.5,2.1-0.7,3.1c0.2,0.8,0.5,1.9,0.9,3.5c-1-0.6-1.4-0.9-2-1.3C66,7.5,64.6,9.4,62.8,10.9z M42.8,12.2c-2.9,0-5.1,0-6.5,0
	c-4.9,4.9-9.3,9.3-13.8,13.8c5.3,7.2,9.8,15.2,15.2,22.3c8.3,0,16.2,0,23.8,0c4.7-7.5,9.2-14.8,13.8-22.1
	c-4.6-4.6-9.2-9.2-13.8-13.8c-2.1,0-4.2,0-6.5,0c0.3,3,0.6,5.8,1,8.8c-0.4,0.3-1,0.8-1.7,1.4c-0.7-0.8-1.2-1.4-1.9-2.1
	c1.8-2.7,1.2-5.5,1.1-8.1c-3.2,0-6.1,0-9.3,0c0.3,3,0.6,5.8,0.9,8.8c-0.4,0.3-1,0.8-1.7,1.4c-0.7-0.8-1.2-1.3-1.3-1.5
	C42.3,17.9,42.6,15.2,42.8,12.2z"/>
</svg>
